<?xml version="1.0" encoding="utf-8"?>
<!-- Generator: Adobe Illustrator 26.0.0, SVG Export Plug-In . SVG Version: 6.00 Build 0)  -->
<svg version="1.1" id="Layer_1" xmlns="http://www.w3.org/2000/svg" xmlns:xlink="http://www.w3.org/1999/xlink" x="0px" y="0px"
	 viewBox="0 0 512 512" style="enable-background:new 0 0 512 512;" xml:space="preserve">
<g transform="translate(0.000000,512.000000) scale(0.100000,-0.100000)">
	<path d="M1893,5080c-58-35-63-56-63-289c0-191-2-210-17-215c-10-3-207-37-438-76c-297-50-427-76-445-89c-14-10-34-34-45-54
		c-19-35-19-36,4-177c12-78,21-144,18-146c-2-2-172-62-378-133s-400-139-432-151c-69-26-97-63-97-127c0-51,542-1567,571-1597
		c24-26,81-26,109-1c13,12,20,31,20,54c0,21-106,329-265,772c-146,405-265,741-265,746s15,15,33,20c17,6,189,65,382,131
		c192,67,352,119,354,116c3-2,129-733,282-1624s283-1629,289-1640c17-32,71-60,115-60c22,0,337,52,700,114c363,63,661,113,662,112
		c2-1-356-131-794-289s-798-285-800-283s-133,364-292,805c-158,441-296,810-306,821c-28,31-88,27-114-6c-12-15-21-36-21-47
		c0-26,588-1664,609-1696c17-27,67-51,106-51c14,0,595,205,1291,455l1266,455l178,30c176,30,183,30,550,30c312,0,376,2,400,15
		c64,33,60-92,60,1755v1680l-38,38c-137,135-628,599-646,609c-16,9-308,12-1266,13C1953,5100,1924,5099,1893,5080z M4262,4688
		c3-293,7-309,87-356l46-27l288-3l287-3V2724V1150H3480H1990v740v741l-25,24c-31,32-80,33-112,3l-23-21v-775c0-667,2-778,15-806
		c31-64-8-61,760-66l700-5l-825-141c-454-78-827-138-830-134c-9,15-614,3560-608,3565c5,6,747,135,773,135c13,0,15-93,15-745v-746
		l25-24c29-30,74-32,106-6l24,19l3,1016l2,1016h1135h1134L4262,4688z M4750,4570l115-109l-210-1c-151,0-214,3-223,12s-12,70-12,211
		v199l108-101C4587,4726,4687,4631,4750,4570z"/>
	<path d="M2365,3985c-16-15-25-36-25-55s9-40,25-55l24-25h1099c1097,0,1099,0,1126,21c35,27,36,86,3,117l-23,22H3491H2389L2365,3985
		z"/>
	<path d="M2383,3470c-45-18-56-80-22-124l20-26h1110c1096,0,1109,0,1129,20c31,31,27,93-6,119c-27,21-29,21-1118,20
		C2893,3479,2395,3475,2383,3470z"/>
	<path d="M2360,2918c-11-12-20-35-20-53s9-41,20-53l21-22h1109c1097,0,1110,0,1130,20c12,12,20,33,20,55s-8,43-20,55
		c-20,20-33,20-1130,20H2381L2360,2918z"/>
	<path d="M2361,2384c-26-33-27-75-2-105l19-24l1105-3l1104-2l26,21c34,26,38,88,7,119c-20,20-33,20-1129,20H2381L2361,2384z"/>
	<path d="M2365,1855c-16-15-25-36-25-55s9-40,25-55l24-25h1104h1104l21,23c32,34,30,89-4,116c-27,21-29,21-1126,21H2389L2365,1855z"
		/>
</g>
</svg>
