<?xml version="1.0" encoding="utf-8"?>
<!-- Generator: Adobe Illustrator 26.0.0, SVG Export Plug-In . SVG Version: 6.00 Build 0)  -->
<svg version="1.0" id="Layer_1" xmlns="http://www.w3.org/2000/svg" xmlns:xlink="http://www.w3.org/1999/xlink" x="0px" y="0px"
	 viewBox="0 0 491 625" style="enable-background:new 0 0 491 625;" xml:space="preserve">
<g transform="translate(0.000000,625.000000) scale(0.100000,-0.100000)">
	<path d="M215,6241c-71-18-148-81-182-150c-17-35-18-155-18-2971V184l30-46c17-25,48-60,69-77C195-3,100,0,1794,0
		c1001,0,1554,4,1577,10c29,8,116,90,426,403c834,840,1078,1089,1091,1112c10,19,12,479,10,2272c-3,2050-4,2251-19,2284
		c-25,54-76,107-133,137l-51,27l-2225,2C1246,6247,232,6245,215,6241z M4644,5984c3-9,6-974,6-2145V1710h-557c-623,0-626-1-722-67
		c-31-21-72-63-93-93c-69-98-68-88-68-727V250l-1478,2l-1477,3l-3,2860c-1,1573,0,2866,3,2873c3,9,451,12,2194,12
		C4436,6000,4638,5999,4644,5984z M4340,1322c-568-577-871-882-878-882c-12,0,1,942,14,963c6,10,24,27,40,38c28,18,52,19,494,19h466
		L4340,1322z"/>
	<path d="M952,5635c-122-27-179-78-224-201c-19-51-22-79-22-214c0-176,14-232,79-307c64-75,212-115,320-87c52,14,81,12,71-5
		c-11-18,17-29,128-50c65-12,120-20,122-19c4,4,64,139,64,144c0,2-20,15-45,30c-25,14-44,29-42,33c56,103,75,218,59,354
		c-17,133-36,183-96,242c-38,38-66,55-110,69C1177,5648,1032,5654,952,5635z M1188,5241c3-228,7-221-120-221h-88v183
		c0,100,4,187,8,194c14,22,56,32,127,30l70-2L1188,5241z"/>
	<path d="M3265,5601l-110-26l-3-52c-3-50-4-52-35-55l-32-3l-3-82l-3-83h36h35v-204c0-188,2-205,20-228c29-38,86-56,197-64l100-7
		l6,48c4,26,7,69,7,95c0,47-1,48-35,54l-35,7v149v150h45h46l-3,83l-3,82l-42,3l-43,3v80C3410,5644,3422,5640,3265,5601z"/>
	<path d="M2522,5465c-126-39-183-125-190-289c-8-181,36-286,141-340c52-27,70-30,171-34c130-5,198,10,263,57c80,58,121,201,102,352
		c-18,141-77,220-192,254C2754,5484,2581,5484,2522,5465z M2735,5153c0-88-4-146-11-153c-6-6-34-13-62-17l-52-6v145
		c0,104,4,148,13,156c17,14,46,20,82,19l30-2V5153z"/>
	<path d="M3758,5464c-59-21-122-74-149-126c-31-62-45-183-31-278c13-94,37-145,88-190c67-58,93-65,259-65c183,0,275,16,274,49
		c-1,36-24,154-31,161c-3,3-23,2-44-4c-60-16-195-29-236-24c-34,5-38,8-38,33c0,27,0,27,89,34c229,18,299,73,289,229
		c-6,94-30,137-96,169c-41,20-65,23-187,25C3836,5479,3794,5476,3758,5464z M3990,5267c0-29-5-58-12-65s-38-12-70-12h-58v46
		c0,73,11,84,80,84h60V5267z"/>
	<path d="M1570,5215c0-208,3-263,16-302c30-88,91-118,229-111c82,4,133,21,173,58c12,11,24,20,28,20s24-16,46-35c36-33,43-35,98-33
		l60,2v328v328h-130h-130v-229c0-183-3-231-14-240c-8-6-37-14-65-18l-51-6v247v246h-130h-130V5215z"/>
	<path d="M721,4484c-21-27-21-29-21-1166V2179l25-24l24-25h1706h1706l24,25l25,24v1133c0,623-3,1143-6,1154c-3,12-17,27-30,33
		c-18,8-491,11-1729,11H741L721,4484z M4038,4017l2-317l-1582,2l-1583,3l-3,305c-1,168,0,310,3,317c3,11,318,13,1582,11l1578-3
		L4038,4017z M4038,2917l2-607H2455H870v605v605l1573,2c864,2,1577,3,1582,2C4032,3524,4036,3312,4038,2917z"/>
	<path d="M1152,4083c-7-3-19-18-28-35c-20-38-10-81,23-108c25-20,39-20,950-20h924l24,25c31,30,33,82,4,119l-20,26l-932-1
		C1584,4089,1159,4086,1152,4083z"/>
	<path d="M1135,3238c-31-37-29-77,7-115l21-23h929h929l24,25c17,16,25,35,25,60s-8,44-25,60l-24,25h-930h-929L1135,3238z"/>
	<path d="M1170,2723c-73-27-75-132-3-162c21-8,351-11,1281-9l1254,3l24,28c31,36,31,78,0,114l-24,28l-1259,2
		C1751,2728,1178,2726,1170,2723z"/>
	<path d="M1225,1794c-88-22-213-87-278-145c-202-180-275-453-191-709c127-383,566-561,927-377c148,76,272,220,328,383
		c21,59,24,88,24,204c0,106-4,147-19,190c-71,208-226,369-421,436C1495,1810,1322,1819,1225,1794z M1499,1669
		c196-45,361-213,402-407c29-141-3-296-87-418c-35-51-56-72-122-126c-70-57-199-98-307-98c-150,0-266,49-376,159
		c-114,115-153,211-153,376c0,96,4,119,27,180c62,161,200,285,367,329C1314,1681,1436,1684,1499,1669z"/>
	<path d="M1278,1497c-138-39-244-173-255-321c-15-222,162-399,384-383c134,10,245,86,301,205c24,50,27,69,27,157c0,85-4,107-24,148
		c-34,69-110,143-178,174C1464,1509,1351,1517,1278,1497z"/>
</g>
</svg>
